<svg width="140" height="140" viewBox="0 0 140 140" fill="none" xmlns="http://www.w3.org/2000/svg">
<path d="M51.8109 97.2193C57.5297 97.2193 62.1657 92.5193 62.1657 86.7215C62.1657 80.9237 57.5297 76.2236 51.8109 76.2236C46.0921 76.2236 41.4561 80.9237 41.4561 86.7215C41.4561 92.5193 46.0921 97.2193 51.8109 97.2193Z" stroke="#282C2F" stroke-width="2" stroke-miterlimit="10" stroke-linecap="round" stroke-linejoin="round"/>
<path d="M54.1442 96.9981L49.623 77.1113" stroke="#282C2F" stroke-width="2" stroke-miterlimit="10" stroke-linecap="round" stroke-linejoin="round"/>
<path d="M101.398 68.0177L90.0956 95.5191C88.5642 99.2155 84.4077 100.99 80.7616 99.4373C77.1156 97.8848 75.3655 93.6709 76.8968 89.9744L88.1996 62.4731C89.731 58.7767 93.8875 57.0024 97.5335 58.5549C101.253 60.0334 102.93 64.3213 101.398 68.0177Z" stroke="#282C2F" stroke-width="2" stroke-miterlimit="10" stroke-linecap="round" stroke-linejoin="round"/>
<path d="M82.584 76.1504L95.7827 81.7689" stroke="#282C2F" stroke-width="2" stroke-miterlimit="10" stroke-linecap="round" stroke-linejoin="round"/>
<path d="M80.3223 52.5678C83.7456 52.5678 86.5206 49.7544 86.5206 46.2839C86.5206 42.8134 83.7456 40 80.3223 40C76.8991 40 74.124 42.8134 74.124 46.2839C74.124 49.7544 76.8991 52.5678 80.3223 52.5678Z" stroke="#282C2F" stroke-width="2" stroke-miterlimit="10" stroke-linecap="round" stroke-linejoin="round"/>
<path d="M75.2239 68.4883C77.1187 64.5647 71.0899 57.6292 61.7582 52.9974C52.4264 48.3656 43.3256 47.7915 41.4308 51.7151C39.536 55.6386 45.5649 62.5742 54.8966 67.206C64.2283 71.8378 73.3292 72.4119 75.2239 68.4883Z" stroke="#282C2F" stroke-width="2" stroke-miterlimit="10" stroke-linecap="round" stroke-linejoin="round"/>
</svg>
