<svg width="140" height="140" viewBox="0 0 140 140" fill="none" xmlns="http://www.w3.org/2000/svg">
<path d="M50.4414 68.8828C55.708 68.8828 59.9775 64.6133 59.9775 59.3467C59.9775 54.08 55.708 49.8105 50.4414 49.8105C45.1747 49.8105 40.9053 54.08 40.9053 59.3467C40.9053 64.6133 45.1747 68.8828 50.4414 68.8828Z" stroke="#282C2F" stroke-width="2" stroke-miterlimit="10" stroke-linecap="round" stroke-linejoin="round"/>
<path d="M41.1738 61.4969L59.1716 57.4004" stroke="#282C2F" stroke-width="2" stroke-miterlimit="10" stroke-linecap="round" stroke-linejoin="round"/>
<path d="M61.1195 100.045L36.0704 89.636C32.7126 88.2258 31.1009 84.3979 32.5111 81.0401C33.9214 77.6823 37.7493 76.0706 41.1071 77.4809L66.089 87.89C69.4468 89.3003 71.0585 93.1281 69.6483 96.4859C68.3051 99.8437 64.4773 101.455 61.1195 100.045Z" stroke="#282C2F" stroke-width="2" stroke-miterlimit="10" stroke-linecap="round" stroke-linejoin="round"/>
<path d="M53.6646 82.6523L48.6279 94.8075" stroke="#282C2F" stroke-width="2" stroke-miterlimit="10" stroke-linecap="round" stroke-linejoin="round"/>
<path d="M98.7932 83.6584L97.7858 64.6533C97.6515 62.1014 99.5991 59.8852 102.151 59.8181C104.703 59.6838 106.919 61.6313 106.986 64.1832L107.994 83.1883C108.128 85.7402 106.18 87.9563 103.628 88.0235C101.076 88.1578 98.9275 86.2103 98.7932 83.6584Z" stroke="#282C2F" stroke-width="2" stroke-miterlimit="10" stroke-linecap="round" stroke-linejoin="round"/>
<path d="M107.591 73.7197L98.3232 74.1898" stroke="#282C2F" stroke-width="2" stroke-miterlimit="10" stroke-linecap="round" stroke-linejoin="round"/>
<path d="M86.7063 93.8667C89.8589 93.8667 92.4145 91.311 92.4145 88.1584C92.4145 85.0059 89.8589 82.4502 86.7063 82.4502C83.5537 82.4502 80.998 85.0059 80.998 88.1584C80.998 91.311 83.5537 93.8667 86.7063 93.8667Z" stroke="#282C2F" stroke-width="2" stroke-miterlimit="10" stroke-linecap="round" stroke-linejoin="round"/>
<path d="M66.7627 48.8047C69.4702 48.8047 71.6651 46.6099 71.6651 43.9024C71.6651 41.1949 69.4702 39 66.7627 39C64.0552 39 61.8604 41.1949 61.8604 43.9024C61.8604 46.6099 64.0552 48.8047 66.7627 48.8047Z" stroke="#282C2F" stroke-width="2" stroke-miterlimit="10" stroke-linecap="round" stroke-linejoin="round"/>
<path d="M84.3559 66.7275C89.9585 58.9699 91.8922 50.7975 88.6749 48.4739C85.4576 46.1503 78.3077 50.5555 72.705 58.313C67.1024 66.0706 65.1687 74.243 68.386 76.5666C71.6033 78.8902 78.7532 74.485 84.3559 66.7275Z" stroke="#282C2F" stroke-width="2" stroke-miterlimit="10" stroke-linecap="round" stroke-linejoin="round"/>
</svg>
